# xmcd
#
# Track frame offsets:
# 150
# 14510
# 26251
# 33425
# 44511
# 56144
# 71982
# 83548
# 96765
# 114800
# 125540
# 137749
# 150129
# 161157
# 176136
# 186257
# 195631
# 209971
# 225188
# 239319
# 254132
# 264989
# 272172
# 281731
# 298240
# 305762
# 322413
#
# Disc length: 4473 seconds
#
#
# Revision: 0
# Processed by: cddbd v1.5.2PL0 Copyright (c) Steve Scherf et al.
# Submitted via: FreeRIP 2.951 
#
DISCID=9c11771b
DTITLE=Cesar Menotti and Fabiano - Palavras de amor
DYEAR=2006
DGENRE=Sertanejo
TTITLE0=Como um anjo
TTITLE1=Tentei te esquecer, Coração esta em pedaços, Fica comigo
TTITLE2=Coração esta em pedaços
TTITLE3=Fica comigo
TTITLE4=A carta
TTITLE5=Sem medo de ser feliz
TTITLE6=Mensagem pra ela
TTITLE7=Esperando na janela
TTITLE8=Leilão
TTITLE9=Aqui não
TTITLE10=Lugar melhor que BH
TTITLE11=Bão tamém
TTITLE12=Sempre seu homem
TTITLE13=Paixão mineira
TTITLE14=Ta chovendo amor
TTITLE15=Onde tem som de viola
TTITLE16=Telefone mudo
TTITLE17=Amargurado
TTITLE18=Na hora do adeus
TTITLE19=Caso marcado
TTITLE20=To morrendo de saudade
TTITLE21=Nova York
TTITLE22=O que tiver que vir vira
TTITLE23=Me apaixonei
TTITLE24=Cana verde
TTITLE25=Erguei as mãos
TTITLE26=Paixão mineira (solado)
EXTD=
EXTT0=
EXTT1=
EXTT2=
EXTT3=
EXTT4=
EXTT5=
EXTT6=
EXTT7=
EXTT8=
EXTT9=
EXTT10=
EXTT11=
EXTT12=
EXTT13=
EXTT14=
EXTT15=
EXTT16=
EXTT17=
EXTT18=
EXTT19=
EXTT20=
EXTT21=
EXTT22=
EXTT23=
EXTT24=
EXTT25=
EXTT26=
PLAYORDER=
